0
SECTION
2
HEADER
9
$INSUNITS
70
4
9
$ACADVER
1
AC1014
9
$HANDSEED
5
FFFF
0
ENDSEC
0
SECTION
2
TABLES
0
TABLE
2
VPORT
5
8
100
AcDbSymbolTable
0
ENDTAB
0
TABLE
2
LTYPE
5
5
100
AcDbSymbolTable
0
LTYPE
5
14
100
AcDbSymbolTableRecord
100
AcDbLinetypeTableRecord
2
BYBLOCK
70
0
0
LTYPE
5
15
100
AcDbSymbolTableRecord
100
AcDbLinetypeTableRecord
2
BYLAYER
70
0
0
LTYPE
5
16
100
AcDbSymbolTableRecord
100
AcDbLinetypeTableRecord
2
DASHED
70
0
3
Dashed __ __ __ __ __ __ __ __ __ __ __ __ __ _
72
65
73
2
40
0.75
49
0.5
74
0
49
-0.25
74
0
0
ENDTAB
0
TABLE
2
LAYER
5
2
100
AcDbSymbolTable
70
2
0
LAYER
5
50
100
AcDbSymbolTableRecord
100
AcDbLayerTableRecord
2
0
70
0
62
7
6
CONTINUOUS
0
ENDTAB
0
TABLE
2
STYLE
5
3
100
AcDbSymbolTable
70
1
0
STYLE
5
11
100
AcDbSymbolTableRecord
100
AcDbTextStyleTableRecord
2
STANDARD
70
0
0
ENDTAB
0
TABLE
2
VIEW
5
6
100
AcDbSymbolTable
70
0
0
ENDTAB
0
TABLE
2
UCS
5
7
100
AcDbSymbolTable
70
0
0
ENDTAB
0
TABLE
2
APPID
5
9
100
AcDbSymbolTable
70
2
0
APPID
5
12
100
AcDbSymbolTableRecord
100
AcDbRegAppTableRecord
2
ACAD
70
0
0
ENDTAB
0
TABLE
2
DIMSTYLE
5
A
100
AcDbSymbolTable
70
1
0
ENDTAB
0
TABLE
2
BLOCK_RECORD
5
1
100
AcDbSymbolTable
70
1
0
BLOCK_RECORD
5
1F
100
AcDbSymbolTableRecord
100
AcDbBlockTableRecord
2
*MODEL_SPACE
0
BLOCK_RECORD
5
1B
100
AcDbSymbolTableRecord
100
AcDbBlockTableRecord
2
*PAPER_SPACE
0
ENDTAB
0
ENDSEC
0
SECTION
2
BLOCKS
0
BLOCK
5
20
100
AcDbEntity
100
AcDbBlockBegin
2
*MODEL_SPACE
0
ENDBLK
5
21
100
AcDbEntity
100
AcDbBlockEnd
0
BLOCK
5
1C
100
AcDbEntity
100
AcDbBlockBegin
2
*PAPER_SPACE
0
ENDBLK
5
1D
100
AcDbEntity
100
AcDbBlockEnd
0
ENDSEC
0
SECTION
2
ENTITIES
0
CIRCLE
5
100
100
AcDbEntity
8
0
100
AcDbCircle
10
20
20
26.500000000000004
30
0
40
3.5000000000000009
210
0
220
0
230
1
0
CIRCLE
5
101
100
AcDbEntity
8
0
100
AcDbCircle
10
470
20
-26.500000000000004
30
0
40
3.5000000000000142
210
0
220
0
230
1
0
CIRCLE
5
102
100
AcDbEntity
8
0
100
AcDbCircle
10
20
20
-26.500000000000004
30
0
40
3.5000000000000009
210
0
220
0
230
1
0
CIRCLE
5
103
100
AcDbEntity
8
0
100
AcDbCircle
10
470
20
26.500000000000004
30
0
40
3.5000000000000142
210
0
220
0
230
1
0
LWPOLYLINE
5
104
100
AcDbEntity
8
0
100
AcDbPolyline
90
172
70
1
43
0.0
10
505
20
67.5
10
490
20
67.5
10
490
20
72.5
10
475
20
72.5
10
475
20
67.5
10
460
20
67.5
10
460
20
72.5
10
445
20
72.5
10
445
20
67.5
10
430
20
67.5
10
430
20
72.5
10
415
20
72.5
10
415
20
67.5
10
400
20
67.5
10
400
20
72.5
10
385
20
72.5
10
385
20
67.5
10
370
20
67.5
10
370
20
72.5
10
355
20
72.5
10
355
20
67.5
10
340
20
67.5
10
340
20
72.5
10
325
20
72.5
10
325
20
67.5
10
310
20
67.5
10
310
20
72.5
10
295
20
72.5
10
295
20
67.5
10
280
20
67.5
10
280
20
72.5
10
265
20
72.5
10
265
20
67.5
10
250
20
67.5
10
250
20
72.5
10
235
20
72.5
10
235
20
67.5
10
220
20
67.5
10
220
20
72.5
10
205
20
72.5
10
205
20
67.5
10
190
20
67.5
10
190
20
72.5
10
175
20
72.5
10
175
20
67.5
10
160
20
67.5
10
160
20
72.5
10
145
20
72.5
10
145
20
67.5
10
130
20
67.5
10
130
20
72.5
10
115
20
72.5
10
115
20
67.5
10
100
20
67.5
10
100
20
72.5
10
85
20
72.5
10
85
20
67.5
10
70
20
67.5
10
70
20
72.5
10
55
20
72.5
10
55
20
67.5
10
40
20
67.5
10
40
20
72.5
10
25
20
72.5
10
25
20
67.5
10
-5
20
67.5
10
-5
20
52.5
10
0
20
52.5
10
0
20
37.5
10
-5
20
37.5
10
-5
20
22.5
10
0
20
22.5
10
0
20
7.5
10
-5
20
7.5
10
-5
20
-7.5
10
0
20
-7.5
10
0
20
-22.5
10
-5
20
-22.5
10
-5
20
-37.5
10
0
20
-37.5
10
0
20
-52.5
10
-5
20
-52.5
10
-5
20
-67.5
10
25
20
-67.5
10
25
20
-72.5
10
40
20
-72.5
10
40
20
-67.5
10
55
20
-67.5
10
55
20
-72.5
10
70
20
-72.5
10
70
20
-67.5
10
85
20
-67.5
10
85
20
-72.5
10
100
20
-72.5
10
100
20
-67.5
10
115
20
-67.5
10
115
20
-72.5
10
130
20
-72.5
10
130
20
-67.5
10
145
20
-67.5
10
145
20
-72.5
10
160
20
-72.5
10
160
20
-67.5
10
175
20
-67.5
10
175
20
-72.5
10
190
20
-72.5
10
190
20
-67.5
10
205
20
-67.5
10
205
20
-72.5
10
220
20
-72.5
10
220
20
-67.5
10
235
20
-67.5
10
235
20
-72.5
10
250
20
-72.5
10
250
20
-67.5
10
265
20
-67.5
10
265
20
-72.5
10
280
20
-72.5
10
280
20
-67.5
10
295
20
-67.5
10
295
20
-72.5
10
310
20
-72.5
10
310
20
-67.5
10
325
20
-67.5
10
325
20
-72.5
10
340
20
-72.5
10
340
20
-67.5
10
355
20
-67.5
10
355
20
-72.5
10
370
20
-72.5
10
370
20
-67.5
10
385
20
-67.5
10
385
20
-72.5
10
400
20
-72.5
10
400
20
-67.5
10
415
20
-67.5
10
415
20
-72.5
10
430
20
-72.5
10
430
20
-67.5
10
445
20
-67.5
10
445
20
-72.5
10
460
20
-72.5
10
460
20
-67.5
10
475
20
-67.5
10
475
20
-72.5
10
490
20
-72.5
10
490
20
-67.5
10
505
20
-67.5
10
505
20
-72.5
10
520
20
-72.5
10
520
20
-67.5
10
550
20
-67.5
10
550
20
-52.5
10
545
20
-52.5
10
545
20
-37.5
10
550
20
-37.5
10
550
20
-22.5
10
545
20
-22.5
10
545
20
-7.5
10
550
20
-7.5
10
550
20
7.5
10
545
20
7.5
10
545
20
22.5
10
550
20
22.5
10
550
20
37.5
10
545
20
37.5
10
545
20
52.5
10
550
20
52.5
10
550
20
67.5
10
520
20
67.5
10
520
20
72.5
10
505
20
72.5
0
ENDSEC
0
SECTION
2
OBJECTS
0
DICTIONARY
5
C
100
AcDbDictionary
3
ACAD_GROUP
350
D
3
ACAD_MLINESTYLE
350
17
0
DICTIONARY
5
D
100
AcDbDictionary
0
DICTIONARY
5
1A
330
C
100
AcDbDictionary
0
DICTIONARY
5
17
100
AcDbDictionary
0
ENDSEC
0
EOF
